<svg width="37" height="30" viewBox="0 0 37 30" fill="none" xmlns="http://www.w3.org/2000/svg">
<path d="M17.5325 6.3255C16.7574 6.99045 15.2183 8.43028 13.7349 9.83714L12.062 11.4199C10.7069 11.178 9.32953 11.0571 7.95214 11.0571C4.83489 11.0571 2.00762 11.898 0.719452 13.2004C0.256605 13.6126 -0.00548927 14.2006 8.72083e-05 14.8161C0.0279696 16.2834 1.74552 17.0363 2.26971 17.2341C4.75682 18.2783 7.62313 17.9101 9.75892 16.2779C11.2423 15.1733 12.6531 13.9698 13.9692 12.6728C14.9506 12.8872 16.0659 13.1839 17.2704 13.5301L18.3801 13.8434C16.947 15.2283 15.4637 16.6791 14.0974 17.8716L13.997 17.9595C12.101 19.6082 10.7404 20.7952 8.76631 21.2239C7.86849 21.4767 6.90934 21.4107 6.05614 21.048C6.0171 21.0535 5.97807 21.1085 5.97807 21.1085C7.08779 22.1087 8.58786 22.5813 10.0824 22.3999C11.8612 22.2515 13.9134 21.1579 16.0269 19.229L18.843 16.4812L20.8059 14.5413C20.8059 14.5468 24.821 15.7009 24.821 15.7009C24.8489 15.7064 24.8767 15.7119 24.899 15.7229C24.8489 15.7229 22.3952 18.1024 22.3952 18.1024L20.2706 20.1907C18.843 21.6635 17.2927 23.0209 15.6421 24.2519C13.5119 25.7302 11.7218 26.5051 10.127 26.5985C9.08417 26.6974 8.04136 26.4941 7.11009 26.0215C7.06548 26.016 7.01529 26.0709 7.01529 26.0709C8.24212 27.3129 9.93179 28.0109 11.694 27.9999C14.2703 27.9339 16.5511 26.7139 20.0698 23.5045C21.687 22.0262 23.3042 20.4105 24.7262 18.9597L27.3583 16.3274C29.0033 16.7011 30.6874 16.8659 32.3715 16.8275C34.8698 16.7835 36.9721 15.602 37 14.2555C36.9387 13.4587 36.4479 12.7498 35.7174 12.409C34.7973 11.843 33.7378 11.5408 32.6504 11.5463C30.4867 11.6562 28.4345 12.5135 26.8452 13.9643L25.518 15.1128C25.5348 15.1019 25.0329 14.981 25.0329 14.981L21.3636 13.9753C22.4454 12.9751 23.3655 12.1123 24.202 11.3979C25.7244 9.99651 27.6538 9.09524 29.7227 8.83146C30.6651 8.77101 32.3325 8.85344 33.0072 9.33155C33.0351 9.32056 33.0797 9.25461 33.0797 9.25461C31.8139 8.10055 30.1354 7.48505 28.4122 7.54001C27.1408 7.54001 25.111 7.93569 22.6071 9.83714C21.3022 10.9143 20.0698 12.0628 18.9099 13.2883C18.9099 13.2718 17.0585 12.7223 17.0585 12.7223L16.6068 12.5849L14.6495 12.0024C14.6941 12.0024 15.7759 10.9692 15.7759 10.9692C17.0808 9.70525 18.33 8.49623 19.2835 7.69938C22.78 4.78675 25.0162 4.40206 26.5497 4.38557C27.9494 4.30863 29.3435 4.66584 30.5257 5.40774C30.5536 5.40774 30.6038 5.34729 30.6038 5.34729C29.087 3.77007 26.9568 2.91826 24.7541 3.00619C22.5904 2.96772 20.0252 4.14926 17.5325 6.3255ZM3.68056 16.7121C2.56527 16.6351 2.00762 16.179 2.00762 15.3162C2.00762 15.2008 2.08569 12.4475 8.4596 12.1343C9.39087 12.0793 10.3221 12.1068 11.2478 12.2112C11.1921 12.2222 10.5229 12.8267 10.5229 12.8267L10.1325 13.1894C8.58228 14.5688 5.98922 16.8549 3.68056 16.7121ZM29.5498 14.4809C31.4012 13.2609 32.9236 12.6069 33.8716 12.6399C34.4348 12.6618 35.1096 12.8322 35.1096 13.5191C35.1096 14.2061 34.4292 14.8106 33.102 15.2777C31.496 15.7174 29.8175 15.8163 28.1724 15.569C28.613 15.1843 29.0703 14.8161 29.5498 14.4809Z" fill="white"/>
</svg>
