<svg width="101" height="30" viewBox="0 0 101 30" fill="none" xmlns="http://www.w3.org/2000/svg">
<path d="M5.894 14.196C2.464 14.196 0.63 12.992 0.49 10.99H3.192C3.29 12.138 4.312 12.628 5.908 12.628C7.462 12.628 8.54 12.152 8.54 11.284C8.54 10.64 7.784 10.276 6.02 9.898L5.068 9.702C2.086 9.072 0.756 8.26 0.756 6.902C0.756 5.152 2.702 4.004 5.866 4.004C9.156 4.004 10.864 5.096 10.976 7.042H8.274C8.204 6.09 7.294 5.572 5.88 5.572C4.368 5.572 3.444 6.076 3.444 6.748C3.444 7.392 3.92 7.77 5.768 8.162L6.748 8.358C9.8 8.988 11.242 9.758 11.242 11.158C11.242 13.048 9.198 14.196 5.894 14.196ZM15.5101 9.464H15.4681V14H12.7661V4.2H15.4681V8.736H15.5101L20.6061 4.2H23.6861L18.2401 9.1L23.6861 14H20.6061L15.5101 9.464ZM36.2051 4.2L31.4311 10.304V14H28.7291V10.304L23.9411 4.2H26.8251L30.0451 8.47H30.1011L33.3351 4.2H36.2051ZM47.0092 5.866H43.1172L43.0892 14H40.4012L40.4292 5.866H36.4952L36.4672 4.2H46.9952L47.0092 5.866ZM50.9193 12.334H58.0453V14H48.2173V4.2H58.0453V5.866H50.9193V8.232H57.4433V9.898H50.9193V12.334ZM68.3814 11.97H62.6134L61.5354 14H58.8194L63.9994 4.2H67.0094L72.1614 14H69.4594L68.3814 11.97ZM67.5134 10.304L65.5254 6.384H65.4694L63.4814 10.304H67.5134ZM75.7315 6.594H75.6895V13.986H73.1275V4.186H76.9355L80.0155 11.76H80.0715L83.1375 4.186H86.9735V13.986H84.3975V6.58H84.3555L81.3455 13.986H78.7275L75.7315 6.594ZM7.378 24.332H3.724V28H1.022V18.2H6.776C9.786 18.2 11.494 19.236 11.494 21.266C11.494 22.218 10.794 23.142 9.408 23.548V23.59C10.402 23.716 11.13 24.038 11.13 25.102V28H8.442V25.298C8.442 24.682 8.12 24.374 7.378 24.332ZM6.636 19.866H3.724V22.666H6.776C8.05 22.638 8.792 22.204 8.792 21.266C8.792 20.286 7.994 19.866 6.636 19.866ZM18.5869 28.196C14.0789 28.196 12.3289 25.536 12.3289 23.184V23.044C12.3289 20.72 14.0789 18.004 18.5869 18.004C23.1089 18.004 24.7609 20.72 24.7609 23.044V23.184C24.7609 25.536 23.1089 28.196 18.5869 28.196ZM18.5869 26.53C21.2049 26.544 22.1149 24.696 22.1149 23.184V23.03C22.1149 21.56 21.2049 19.656 18.5869 19.67C15.8989 19.684 15.0309 21.56 15.0309 23.03V23.184C15.0309 24.696 15.8989 26.516 18.5869 26.53ZM32.4968 28H25.9868V18.2H32.1888C34.8768 18.2 36.3328 19.11 36.3328 20.79C36.3328 21.868 35.4648 22.624 34.4848 22.932V22.974C35.6748 23.324 36.7108 24.15 36.7108 25.298C36.7108 26.992 35.1428 28 32.4968 28ZM31.9088 19.866H28.6888V22.232H31.9088C32.9728 22.232 33.6728 21.784 33.6728 21.014C33.6728 20.272 33.0568 19.866 31.9088 19.866ZM32.2028 23.8H28.6888V26.334H32.2588C33.3228 26.334 33.9668 25.886 33.9668 25.116C33.9668 24.332 33.2108 23.8 32.2028 23.8ZM40.8021 26.334H47.5501V28H38.1001V18.2H40.8021V26.334ZM54.1884 28.196C49.6804 28.196 47.9304 25.536 47.9304 23.184V23.044C47.9304 20.72 49.6804 18.004 54.1884 18.004C58.7104 18.004 60.3624 20.72 60.3624 23.044V23.184C60.3624 25.536 58.7104 28.196 54.1884 28.196ZM54.1884 26.53C56.8064 26.544 57.7164 24.696 57.7164 23.184V23.03C57.7164 21.56 56.8064 19.656 54.1884 19.67C51.5004 19.684 50.6324 21.56 50.6324 23.03V23.184C50.6324 24.696 51.5004 26.516 54.1884 26.53ZM68.806 28L66.02 24.682L63.234 28H60.378L64.592 23.1L60.378 18.2H63.234L66.02 21.532L68.806 18.2H71.648L67.448 23.1L71.648 28H68.806Z" fill="white"/>
</svg>
