<svg width="500" height="300" viewBox="0 0 500 300" fill="none" xmlns="http://www.w3.org/2000/svg">
<g clip-path="url(#clip0_109_37)">
<rect width="500" height="300" fill="white"/>
<rect width="500" height="300" fill="url(#paint0_linear_109_37)"/>
<path d="M234.677 101.341C222.401 112.007 198.025 135.102 174.532 157.668L148.036 183.054C126.574 179.176 104.76 177.237 82.9447 177.237C33.5742 177.237 -11.2037 190.723 -31.6054 211.615C-38.9359 218.226 -43.0869 227.658 -42.9986 237.53C-42.557 261.066 -15.3547 273.142 -7.05266 276.315C32.3378 293.064 77.7339 287.158 111.56 260.978C135.053 243.26 157.398 223.955 178.241 203.152C193.785 206.59 211.449 211.35 230.526 216.903L248.102 221.928C225.404 244.141 201.911 267.412 180.273 286.541L178.683 287.951C148.654 314.396 127.104 333.435 95.8393 340.311C81.6199 344.366 66.429 343.308 52.9162 337.49C52.2979 337.578 51.6797 338.46 51.6797 338.46C69.2552 354.503 93.0131 362.084 116.683 359.175C144.857 356.795 177.358 339.253 210.831 308.313L255.432 264.239L286.521 233.123C286.521 233.211 350.111 251.722 350.111 251.722C350.552 251.81 350.994 251.898 351.347 252.075C350.552 252.075 311.692 290.243 311.692 290.243L278.042 323.739C255.432 347.363 230.88 369.136 204.737 388.881C170.999 412.593 142.649 425.022 117.389 426.52C100.874 428.107 84.3578 424.845 69.6085 417.265C68.9019 417.176 68.1071 418.058 68.1071 418.058C87.5373 437.979 114.298 449.174 142.207 448.998C183.01 447.94 219.133 428.371 274.863 376.893C300.475 353.181 326.088 327.265 348.609 303.994L390.296 261.771C416.35 267.765 443.023 270.409 469.695 269.792C509.262 269.087 542.558 250.135 543 228.539C542.029 215.757 534.256 204.386 522.687 198.921C508.114 189.842 491.333 184.994 474.111 185.082C439.843 186.845 407.342 200.596 382.171 223.867L361.151 242.29C361.415 242.114 353.467 240.175 353.467 240.175L295.353 224.043C312.487 208 327.059 194.161 340.307 182.702C364.418 160.224 394.977 145.768 427.743 141.537C442.669 140.567 469.077 141.889 479.763 149.558C480.205 149.382 480.912 148.324 480.912 148.324C460.863 129.813 434.279 119.94 406.988 120.822C386.851 120.822 354.703 127.168 315.048 157.668C294.381 174.945 274.863 193.368 256.492 213.025C256.492 212.76 227.17 203.946 227.17 203.946L220.016 201.742L189.016 192.398C189.723 192.398 206.857 175.826 206.857 175.826C227.523 155.552 247.307 136.16 262.41 123.378C317.786 76.6594 353.202 70.489 377.49 70.2246C399.658 68.9905 421.738 74.7201 440.461 86.6202C440.903 86.6202 441.698 85.6505 441.698 85.6505C417.675 60.352 383.937 46.689 349.051 48.0993C314.783 47.4823 274.156 66.4342 234.677 101.341ZM15.2921 267.941C-2.37174 266.707 -11.2037 259.391 -11.2037 245.552C-11.2037 243.701 -9.96719 199.538 90.9818 194.514C105.731 193.632 120.48 194.073 135.141 195.748C134.258 195.924 123.66 205.62 123.66 205.62L117.478 211.438C92.9248 233.563 51.8563 270.233 15.2921 267.941ZM425.005 232.153C454.327 212.584 478.439 202.094 493.453 202.623C502.373 202.976 513.06 205.709 513.06 216.727C513.06 227.746 502.285 237.442 481.265 244.935C455.829 251.986 429.245 253.573 403.191 249.606C410.168 243.436 417.41 237.53 425.005 232.153Z" fill="white" fill-opacity="0.05"/>
</g>
<defs>
<linearGradient id="paint0_linear_109_37" x1="6.25523e-06" y1="300" x2="264.706" y2="-141.176" gradientUnits="userSpaceOnUse">
<stop stop-color="#001D3A"/>
<stop offset="1" stop-color="#013D7B"/>
</linearGradient>
<clipPath id="clip0_109_37">
<rect width="500" height="300" fill="white"/>
</clipPath>
</defs>
</svg>
