<svg width="200" height="42" viewBox="0 0 200 42" fill="none" xmlns="http://www.w3.org/2000/svg">
<path d="M18.9699 21.74C18.5399 22.6 17.4599 22.82 16.6299 22.82C15.3699 22.82 12.9199 21.31 13.0999 20.26C13.1399 20.04 13.2099 19.94 13.4999 19.86C13.7899 19.75 15.5499 19.54 15.9099 19.54C16.8799 19.54 17.0599 20.01 17.5999 19.94C18.6399 19.94 19.3299 16.99 19.4699 16.34C19.5099 16.09 19.3599 15.73 19.2899 15.4C19.2199 15.08 17.3499 13.24 16.8799 13.24C15.8699 13.24 12.9199 17.85 12.1599 18.46C11.9399 19.18 10.7199 21.48 10.6799 21.84C10.5399 22.78 10.7499 23.68 10.7499 24.58C10.7499 25.16 10.8599 25.62 10.6099 26.24C10.7499 27.21 10.7499 28.36 10.6099 29.44C10.3599 31.17 9.27992 35.6 6.39992 35.63C4.63992 35.63 4.16992 34.51 4.16992 33.29C4.16992 32.93 4.20992 32.57 4.23992 32.25C4.41992 31.17 4.70992 29.84 5.27992 28.9C5.41992 27.93 5.99992 26.7 6.39992 25.66C6.86992 24.36 8.23992 22.56 8.44992 21.2C8.58992 20.37 8.33992 18.03 8.22992 17.06C8.18992 16.63 8.04992 16.23 8.11992 15.76C8.11992 15.47 8.15992 15.15 8.15992 14.82C7.93992 14.46 7.57992 14.06 7.65992 13.52C7.72992 13.02 8.23992 12.51 8.95992 12.55C9.60992 12.55 10.3999 12.87 10.3299 13.41C10.2899 13.7 10.2199 13.99 10.1899 14.24C10.1499 14.6 10.2599 14.89 10.2999 15.25C10.2999 15.68 10.0099 16.98 10.6999 16.98C11.1299 16.98 13.5099 13.78 13.9399 13.38C14.2999 13.02 14.7299 12.7 15.2399 12.55C15.6399 11.79 16.6399 10.89 17.6899 10.89C19.0599 10.89 19.1699 12.08 19.7399 12.87C20.1399 13.41 20.9999 13.55 21.2899 14.42C21.4299 14.82 21.4699 15.32 21.4699 15.82C21.4499 18.04 20.6899 20.3 18.9699 21.74ZM8.37992 26.86C7.58992 27.51 7.33992 28.08 7.11992 28.77C7.00992 29.85 6.25992 30.89 6.14992 31.97C6.07992 32.26 6.14992 33.73 6.57992 33.73C7.47992 33.73 8.44992 30.6 8.51992 29.95C8.59992 29.27 8.81992 27.72 8.37992 26.86Z" fill="white"/>
<path d="M39.1998 24.41C38.8798 24.99 36.8998 28.23 36.2798 28.55C35.3798 29.99 34.0498 31.21 32.8598 31.21C31.7398 31.21 30.4098 30.31 30.2698 29.3C29.9498 28.83 29.9098 28.04 29.9098 27.46C29.9098 27.03 30.1298 26.38 30.1598 25.98C30.2298 25.69 30.1198 25.22 29.7298 25.22C29.5098 25.22 29.1898 25.47 29.0498 25.62C27.8598 27.06 26.8898 28.72 25.3098 29.9C24.9498 30.15 23.7598 30.37 23.2598 30.37C21.7798 30.37 21.0598 28.35 21.0598 27.13C21.0598 26.48 21.2798 25.83 21.3498 25.19C21.4598 24.43 21.8198 23.53 22.3198 22.81C23.1098 20.51 26.8898 16.15 29.9098 16.15C30.5898 16.15 32.8298 16.58 32.8298 17.27C32.8298 17.34 32.9398 17.77 32.9398 17.85C33.2298 18.21 34.3098 18.21 34.1298 19.15C34.0898 19.51 33.9498 20.05 33.7298 20.37C33.6598 21.2 33.5098 21.88 33.3298 22.64C33.2198 23.18 32.8598 23.9 32.6098 24.33C32.7498 24.83 32.4998 26.06 32.4998 26.06C32.4998 26.31 32.2798 26.6 32.2498 26.74C32.2098 27.21 32.3898 29.26 33.1098 29.26C33.9398 29.26 35.4098 27.21 36.3498 26.13C36.9598 24.76 37.7198 23.65 37.8598 23.43C38.3998 22.46 38.6498 21.31 39.8398 21.31C40.4498 21.31 40.6698 21.67 40.6698 22.03C40.6698 22.46 39.4098 23.9 39.1998 24.41ZM29.9798 18.04C29.2598 18.04 28.4298 18.69 27.7798 18.8C25.9098 20.2 23.5698 23.91 23.2798 25.96C23.2398 26.36 23.2398 28.44 23.8898 28.44C24.6798 28.4 26.0098 26.42 26.5498 25.88C27.0898 25.3 28.0998 24.12 28.7098 23.43C29.2498 22.6 31.2998 19.9 31.4498 18.93C31.4898 18.33 30.5198 18.04 29.9798 18.04Z" fill="white"/>
<path d="M50.1099 22.82C49.9699 23 49.8599 23.25 49.7499 23.4C49.0999 24.44 48.9899 24.34 47.8399 25.34C47.1199 25.99 46.1799 26.67 45.4999 27.03C45.0999 27.79 43.9899 28.87 43.0199 29.59C42.8399 29.77 42.5199 29.81 42.2299 29.81C41.4699 29.81 40.6499 29.2 40.5399 28.55C40.4299 28.01 40.7599 23.01 40.9399 22.36C40.8699 22.25 40.7599 22 40.5399 22C40.5399 22 39.9599 22.65 39.6799 22.94C39.4999 23.05 39.3199 23.12 39.1399 23.12C38.7399 23.12 38.4199 22.94 38.4599 22.65C38.5299 22.43 38.7499 21.93 38.8899 21.71C40.1899 19.8 40.8699 18.29 40.8699 17.57C40.8699 17.28 40.7999 16.99 40.4699 16.85C40.2499 16.67 40.0699 16.71 39.7899 16.71C39.1399 16.71 38.6699 17.03 38.2099 17.03C37.9199 17.03 37.6299 16.67 37.6299 16.45C37.6299 15.19 40.1099 15.41 40.5799 15.19C41.2299 14.87 41.1199 13.68 41.6999 13.17C41.8799 12.13 42.7099 10.11 44.3299 10.11C44.9099 10.11 45.6299 10.51 45.5499 10.97C45.4099 11.69 45.2299 12.88 44.8999 13.56C45.0099 13.92 44.9399 14.46 45.1499 14.64C45.5099 14.82 46.4499 14.71 46.8399 14.68C47.3399 14.68 47.7799 14.82 47.6299 15.36C47.5199 16.26 45.1099 16.51 44.3899 16.76C43.9899 16.9 43.0199 19.06 42.9899 19.5C42.9499 19.75 43.0299 19.93 43.0299 20.18C42.8899 21.19 42.8499 22.2 42.7399 23.17C42.6699 24 42.8499 24.93 42.4199 25.58C42.5599 25.94 42.5599 27.13 43.0299 27.13C43.3499 27.13 44.4299 26.55 44.6899 26.27C45.4499 25.55 45.8799 24.83 46.5299 24.47C46.9599 23.71 47.5399 23.5 48.0099 22.96C48.9499 21.88 48.7299 22.28 49.3099 21.05C49.4199 20.8 49.9199 20.76 50.1699 20.76C50.7499 20.76 50.9999 21.08 50.9999 21.66C50.8599 22.14 50.3599 22.46 50.1099 22.82Z" fill="white"/>
<path d="M63.0299 22.86C62.6299 23.87 61.4099 25.09 60.7999 25.96C60.4799 26.39 59.3599 27.65 58.5999 27.87C57.9499 28.59 57.2699 29.13 56.7599 29.24C56.6199 29.28 56.2599 29.38 56.1499 29.38C54.4599 29.38 54.0999 27.51 54.2799 26.39C54.3199 26.14 54.4599 25.85 54.5299 25.6L54.9999 21.67C55.0399 21.35 54.9999 19.83 54.7799 19.65C53.7399 20.19 53.1999 20.48 52.2599 20.8C51.9399 21.12 51.4999 21.34 51.1099 21.56C50.7899 21.7 49.8499 23.86 49.1699 24.22C49.0999 24.26 48.7399 24.33 48.6299 24.33C48.2299 24.33 47.9799 23.97 47.9499 23.65C47.9499 23.4 49.1699 21.53 49.2099 21.13C49.3199 20.16 47.6599 20.19 47.6599 18.83C47.6599 18.18 48.0599 16.89 48.2699 16.27C48.4499 15.95 48.6299 15.62 48.9899 15.48C49.3499 14.76 50.1399 13.46 51.0099 13.25C51.1499 13.21 51.3699 13.18 51.5499 13.11C51.6899 13.11 51.7999 13.18 51.9099 13.22C53.2099 13.47 53.5299 13.9 53.3499 15.09C53.2099 16.06 52.8099 16.93 52.6699 17.9C52.6299 18.12 52.6299 18.37 52.9599 18.37C53.0999 18.37 53.2499 18.33 53.3199 18.23C53.6799 17.98 54.4699 17.19 54.7199 16.83C55.0099 16.18 55.7599 15.17 56.7699 15.17C57.1999 15.17 57.8499 15.39 57.6699 15.78C57.6299 16.07 57.4899 16.36 57.4899 16.68C57.4499 17.08 57.5999 17.72 57.5299 18.37C57.4599 19.05 57.2799 19.52 56.9499 20.17C57.0599 21.14 56.8099 22.58 56.5899 23.63C56.5499 23.85 56.3699 24.13 56.2699 24.39C56.1599 25.25 56.1299 26.23 56.1999 27.09C56.2399 27.31 56.3399 27.45 56.5999 27.45C56.7799 27.45 56.8499 27.45 56.9599 27.34C58.0399 26.62 59.0799 25.47 59.7299 24.82C59.8699 24.35 60.7399 23.49 60.9499 23.09C61.3799 22.37 61.5599 21.76 62.3899 21.29C62.6099 21.22 62.8599 21.15 63.0399 21.15C63.3999 21.15 63.8699 21.37 63.8699 21.76C63.6799 22.28 63.2499 22.43 63.0299 22.86ZM50.7499 15.95C50.0699 15.95 49.6699 17.43 49.6699 17.79C49.6299 18.08 49.5999 18.73 49.9899 18.76C50.0299 18.76 50.1299 18.65 50.2099 18.58C50.4299 18.29 51.1099 16.85 51.1499 16.56C51.1899 16.27 51.1899 15.95 50.7499 15.95Z" fill="white"/>
<path d="M72.4599 22.28C71.9199 23.4 70.8399 24.98 70.0099 25.63C69.9399 26.39 66.3699 30.13 65.4699 30.53C64.9999 30.71 64.1699 31.11 63.6299 31.11C62.9799 31.11 62.1499 30.82 62.0099 30.35C61.6099 29.45 61.5399 27.94 61.7599 26.93C61.5399 25.49 61.3999 24.45 61.3999 23.01C61.3999 22.18 61.4399 21.17 61.5399 20.31C61.6499 19.48 62.0099 18.62 62.5099 17.72C62.8299 17.14 63.6999 16.5 64.5599 16.5C65.0299 16.5 65.4199 16.72 65.3499 17.22C65.2799 17.69 64.7699 17.98 64.6299 18.44C64.2699 19.2 64.1299 20.92 63.8399 21.54C63.9099 22.01 63.9499 22.48 63.8799 22.91C63.8399 23.16 63.6999 23.49 63.6599 23.81C63.5899 24.28 63.9499 24.82 63.8799 25.29L63.6999 26.41C63.6599 26.7 63.8399 28.32 63.9499 28.61C64.0199 28.75 64.2699 29.11 64.4899 29.11C65.1399 29.11 66.3299 27.89 67.1899 27.17C67.6199 26.34 69.5999 23.71 70.1399 22.71C70.8999 21.31 71.3599 20.98 72.2599 20.98C72.6199 20.98 72.7599 21.12 72.7599 21.38C72.7599 21.64 72.6099 21.96 72.4599 22.28ZM66.7699 13.21C66.0499 13.21 65.3699 12.63 65.4399 12.02C65.5099 11.52 66.2999 11.01 66.9199 11.01C67.4999 11.01 68.1399 11.48 67.9999 11.98C67.8499 12.6 67.5299 13.21 66.7699 13.21Z" fill="white"/>
<path d="M85.0999 23.87C84.8499 24.27 84.6299 24.81 84.3399 25.2C83.6199 26.14 82.3999 27.54 81.0999 28.08C79.5499 29.45 77.1799 30.6 75.0899 30.6C74.6599 30.6 74.2299 30.53 73.8999 30.38C71.9199 29.73 71.8799 28.65 71.9199 27.07C71.9899 24.15 72.3499 23.47 72.7499 22.28C72.2499 22.68 71.4899 23.5 71.1999 23.5C70.7699 23.5 70.1599 23.1 70.1599 22.74C70.2699 22.27 72.5699 19.1 73.9399 18.06C75.2399 16.04 76.9999 15.5 77.6499 15.32C78.2599 15.07 79.1999 14.85 79.9199 14.85C80.7499 14.85 82.0099 15.89 81.7899 16.61C81.5699 17.29 81.0699 18.37 80.2099 18.37C79.5299 18.37 79.1699 17.11 78.1199 17.11C76.6399 17.11 75.8499 19.31 75.1999 20.21C75.1299 20.89 74.7299 22.33 74.7299 22.33C74.6599 22.69 74.5899 23.45 74.5099 23.81C74.3999 24.13 74.3699 24.93 74.1099 25.47C74.1799 26.51 74.1499 27.13 74.8999 28.06C75.1899 28.38 75.9799 28.38 76.5899 28.38C76.9899 28.38 77.7799 28.2 77.8899 28.16C80.2699 27.48 83.0399 23.95 83.8299 22.72C83.9399 22.25 84.2599 21.82 84.5899 21.5C84.8399 21.28 85.4199 21.18 85.7099 21.18C86.1799 21.18 86.6799 21.25 86.6799 21.79C86.6799 22.43 85.5999 23.26 85.0999 23.87Z" fill="white"/>
<path d="M104.39 23.94C103.63 25.13 102.41 26.42 101.83 26.93C101.33 27.36 100.82 27.79 100.46 28.19C100.03 28.77 99.7398 29.09 99.2398 29.23C99.0198 29.66 98.8798 30.17 98.4798 30.49C97.8698 30.99 97.0798 31.57 96.1398 31.57C95.0198 31.57 94.4098 30.27 94.3798 29.59C94.1298 29.37 93.9098 28.8 93.7998 28.51C93.5098 27.75 93.5098 26.85 92.4998 26.39C92.1398 26.28 91.7398 26.28 91.3498 26.17C91.0598 26.03 89.6898 25.13 89.5098 25.13C88.6098 25.13 87.4198 30.21 87.0298 31.11C86.9198 31.43 86.3098 31.72 85.9098 31.72C85.6198 31.72 84.9398 31.54 84.9698 31.29C84.9298 30.75 85.1498 28.7 85.5098 28.05C85.3698 27.62 85.2198 26.97 85.4698 26.61C85.3598 26.21 85.2898 25.82 85.2898 25.31C85.2898 24.91 85.3598 24.55 85.3598 24.34C85.5398 22.22 83.9898 23.3 84.0298 22.18C84.0298 21.64 85.3998 21.28 85.5798 20.02C85.6498 19.52 85.5798 19.05 85.6198 18.58C85.6598 18.29 85.7598 17.64 86.0198 17.28C85.9098 16.45 87.7098 10.4 88.5798 9.22001C88.8698 8.82001 90.2698 8.10001 90.7798 8.10001C91.1398 8.10001 91.4298 8.10001 91.4998 8.42001C91.8998 9.14001 91.1398 12.96 91.0298 13.75C91.0298 13.82 90.9198 14.69 90.5598 15.01C90.6298 15.73 90.1998 17.42 90.0598 17.67C89.7398 18.79 88.7598 19.83 87.8998 20.77C87.8298 20.91 87.6498 21.24 87.5798 21.45C87.5398 21.67 87.5398 23.29 87.8998 23.29C88.2998 23.29 89.2698 21.99 89.4798 21.71C90.2698 20.85 93.5798 19.19 94.7698 19.23C95.7098 19.23 96.5298 19.88 96.4298 20.67C96.2098 22 94.9198 23.37 94.5898 24.59C94.7298 25.2 95.8098 27.69 96.0698 28.37C96.2098 28.73 96.0698 29.45 96.7498 29.45C97.1498 29.45 99.5598 27 100.1 26.86C100.46 25.96 102.58 23.91 103.12 22.32C103.34 21.67 103.73 21.56 104.42 21.56C104.85 21.56 105.03 21.96 105.03 22.39C105.04 22.79 104.64 23.51 104.39 23.94ZM93.4798 21.13C92.7998 21.13 90.6698 22.28 90.6698 23.04C90.6698 23.4 91.8598 23.98 92.2498 23.98C92.5698 23.98 92.7498 23.91 92.9698 23.73C93.3298 23.26 93.7998 22.07 93.8698 21.57C93.8498 21.31 93.8098 21.13 93.4798 21.13Z" fill="white"/>
<path d="M131.96 28.39C131.17 28.39 130.74 27.99 130.41 27.53C129.4 25.98 128.39 24.36 127.13 22.99C126.66 22.52 126.09 22.13 125.62 21.59C125.26 21.19 124.9 20.58 124.58 19.97C124.18 19.57 123.79 19.39 123.39 19.25C123.14 19.18 122.99 18.89 122.99 18.49C122.99 17.95 124.47 17.55 124.97 17.55C125.26 17.55 125.4 17.69 125.73 17.62C126.99 17.55 128.47 14.31 128.79 13.52C128.86 13.12 128.9 12.76 128.9 12.4C128.97 11.82 128.5 11.79 128.04 11.75C127.57 11.75 126.2 11.97 125.77 12.15C125.37 12.33 124.55 12.73 123.83 12.91C123 13.45 122.14 14.03 122.03 14.39C121.99 14.64 121.89 14.93 121.89 15.22C121.82 15.44 121.82 15.72 121.75 16.05C121.71 16.52 121.35 16.91 121.21 17.42C121.03 18 120.85 18.54 120.74 19.18C120.7 19.4 120.56 19.68 120.49 19.97C120.24 20.73 120.17 21.52 119.81 22.2C119.92 23.46 119.49 24 119.38 24.79C119.2 26.01 119.09 27.35 118.77 28.61C118.7 28.93 118.52 29.26 118.48 29.58C118.41 29.98 118.8 30.44 118.77 30.84C118.73 31.09 118.45 31.31 118.41 31.56L118.23 32.89C118.19 33.25 117.69 33.32 117.33 33.29C116.25 33.29 116 32.5 116 31.78C116 30.59 116.5 29.73 116.65 28.61C116.83 27.21 117.01 26.27 117.33 25.66C117.44 24.94 117.76 23.68 117.87 23.1C117.87 22.67 118.05 21.95 118.12 21.59C118.3 20.62 118.7 18.67 119.2 17.16C119.42 16.51 119.63 15.9 119.81 15.25C120.03 14.6 119.85 14.21 120.35 13.49C120.28 13.02 120.35 12.52 120.39 12.12C120.53 11.47 120.75 10.14 121.79 10.14C122.65 10.14 122.98 11 123.63 11C124.06 11 124.93 10.75 125.75 10.68C126.4 10.39 127.05 10.25 127.44 10.18C128.09 10.04 128.92 10 129.6 10C130.93 10 131.62 10.79 131.44 11.84C131.33 12.38 131.19 12.88 131.01 13.42C130.79 13.89 130.58 14.39 130.29 14.86C130.11 15.18 129.82 15.65 129.53 15.94C129.31 16.66 128.95 17.27 128.63 17.92C128.34 18.46 127.12 19.18 127.08 19.54C127.01 20.04 129.38 22.6 129.85 23.14C130.07 23.46 130.17 23.72 130.35 24.36C131.07 25.08 132.33 26.09 132.83 27.02C132.87 27.13 132.97 27.31 132.97 27.52C132.9 27.88 132.5 28.39 131.96 28.39Z" fill="white"/>
<path d="M146.8 22.82C145.54 24.48 143.02 25.56 142.48 25.34C141.83 25.77 140.9 25.92 140.14 25.92C139.89 26.6 139.46 27.22 138.81 27.97C138.52 28.22 135.97 30.13 135.64 30.17C135.39 30.17 135.14 30.28 134.92 30.24C133.7 30.24 132.8 29.48 132.22 28.8C131.64 28.58 131 28.33 130.56 27.86C130.2 27.46 130.02 26.92 130.02 26.38C130.02 25.55 130.52 22.92 130.78 22.1C131.14 20.88 132.94 18.25 134.56 17.89C134.7 17.85 135.28 17.71 135.39 17.71C135.79 17.71 136.18 17.96 136.51 17.96C137.48 17.89 139.89 17.6 140.61 18.79C140.83 19.29 140.83 20.09 141.04 20.63C141.22 21.1 141.72 21.57 141.62 22.07C141.69 22.18 141.58 22.32 141.51 22.39C141.26 22.68 141.15 23.29 140.97 23.83C142.16 23.9 143.49 23.11 144.03 23.04C144.57 22.54 145.07 22.03 145.51 21.38C145.76 20.73 146.19 20.52 146.84 20.52C147.34 20.52 147.49 20.77 147.49 21.13C147.48 21.74 147.16 22.36 146.8 22.82ZM135.57 24.98C134.67 24.62 133.84 23.5 133.84 21.96L133.48 21.82C132.72 22.72 132.4 23.76 132.26 24.81C132.19 25.21 132.22 25.82 132.26 26.18C132.48 27.08 133.27 27.22 133.95 27.69C134.02 27.8 134.6 28.12 134.78 28.09C134.96 28.09 135.1 28.05 135.32 28.02C136.72 27.05 137.26 26.51 137.88 25.79C136.94 25.78 136.04 25.56 135.57 24.98ZM138.92 19.73C138.81 19.55 138.24 19.41 137.95 19.41C136.91 19.41 136.15 20.38 135.86 20.89C136 21.68 136.08 23.55 137.84 23.55C138.09 23.55 138.49 23.55 138.74 23.37C139.06 23.12 139.28 22.25 139.39 21.61C139.53 20.56 139.24 20.05 138.92 19.73Z" fill="white"/>
<path d="M159.72 20.81C158.5 22 158.64 20.77 157.09 22.07C156.51 22.57 156.55 23.87 156.33 24.52C156.19 24.74 155.43 26.21 155.07 26.28C154.24 27.47 151.76 29.48 150.5 30.13C150.36 30.24 149.28 30.49 148.99 30.45C147.26 30.45 147.51 28.4 147.44 27.43C147.44 27.14 147.33 26.89 147.33 26.57C147.22 25.56 147.33 24.23 147.26 23.11C147.26 22.93 147.19 22.46 147.19 22.28L147.01 22.1C146.69 22.75 146.33 23.04 146 23.04C145.35 23.04 145.21 22.9 145.21 22.61C145.32 22.11 146.87 19.37 147.37 18.36C147.69 17.75 148.34 16.09 148.49 15.12C148.63 14.15 149.17 12.46 149.68 11.95C149.75 11.48 150.47 8.67 151.08 7.77C151.3 7.45 151.87 7.16 152.3 7.16C152.88 7.16 153.7 7.52 153.6 7.99C153.56 8.21 153.42 8.57 153.31 8.85C152.77 9.79 152.3 11.59 152.16 12.59C152.02 13.89 150.97 14.86 150.43 15.87C150.39 16.48 150.39 16.95 150.25 17.49C150.14 17.74 149.96 17.96 149.93 18.28C149.97 18.46 149.35 22.1 149.28 22.78C149.17 23.64 149.35 26.96 149.57 27.86C149.61 28.08 149.71 28.33 150.11 28.33C150.36 28.33 151.05 27.83 151.51 27.68C151.76 27.32 153.53 25.84 153.74 25.52C154.06 25.12 154.57 24.01 154.6 23.61C154.82 21.95 151.47 23.39 151.94 20.23C152.08 19.33 152.73 18.14 153.38 17.39C153.67 17.07 154.21 16.92 154.6 16.92C155.86 16.92 156.72 18.22 156.87 19.12C156.94 19.44 157.19 19.88 157.63 19.88C157.95 19.88 158.42 19.59 158.89 19.59C159.39 19.59 159.93 19.84 159.93 20.38C159.87 20.56 159.83 20.74 159.72 20.81Z" fill="white"/>
<path d="M175.51 23.65C175.19 24.12 174.72 24.62 174.21 24.98C173.63 26.02 172.7 27.1 171.69 28.04C171.47 28.18 171.4 28.44 171.22 28.65C170.97 28.9 170.25 29.23 169.92 29.23C168.55 29.23 168.37 27.61 168.19 26.75C168.08 26.28 167.97 25.78 168.05 25.24C167.87 24.95 167.69 24.7 167.69 24.41C167.65 24.05 167.55 22.21 167.26 22.25C166.9 22.25 165.64 24.59 165.39 24.91C164.96 25.77 164.27 26.78 163.7 27.43C163.41 28.01 163.52 28.22 162.98 28.76C162.37 29.23 161.54 30.02 160.6 30.02C159.48 30.02 159.09 29.26 159.02 28.47C159.06 28.15 158.91 27.93 158.91 27.57C158.91 26.56 159.13 25.95 159.38 24.98C159.24 24.51 159.2 24.04 159.27 23.61C159.34 22.96 159.23 22.46 159.34 21.81C159.38 21.59 159.52 21.2 159.52 21.2C159.16 20.41 159.16 19.87 159.27 19.15C159.38 18.36 160.28 17.42 161.39 17.42C162.36 17.42 162.79 17.89 162.72 18.36C162.68 18.65 161.96 19.87 161.86 20.45C161.5 21.31 161.43 22.21 161.32 23.11C161.18 24.55 161.18 27.39 161.5 27.36C162.22 27.36 165.96 20.67 166.11 19.37C166.22 18.94 166.61 18.22 167.01 17.71C167.01 17.24 167.41 16.92 167.51 16.56C167.76 16.13 168.12 15.8 168.73 15.8C170.35 15.8 170.6 16.77 170.42 17.89C170.24 19.22 169.81 20.55 169.63 21.92C169.52 22.68 169.92 26.89 170.49 26.89C170.71 26.89 171.46 25.99 171.82 25.88C172.14 25.23 173.37 23.83 174.27 22.35C174.45 22.21 174.59 21.99 174.67 21.81C174.89 21.23 175.25 20.23 176.33 20.23C176.91 20.23 177.23 20.81 177.23 21.31C177.16 21.49 175.94 23.11 175.51 23.65Z" fill="white"/>
<path d="M191.38 22.79C190.59 24.45 187.17 28.48 186.48 28.8C186.34 29.23 185.47 29.66 185.11 29.81C184.97 29.85 184.39 29.92 184.25 29.88C181.23 29.88 182.2 25.2 181.19 25.24C180.97 25.24 180.47 25.64 179.97 25.78C179.29 26.9 178.17 27.87 177.38 28.88C176.98 29.38 176.8 29.85 176.16 30.14C175.94 30.25 175.55 30.32 175.3 30.32C174.83 30.32 174.18 30.14 174.18 29.64C174.32 29.39 174.36 29.1 174.54 28.92C175.04 28.34 175.91 27.73 176.56 27.34C177.24 26.58 180.2 23.74 180.84 22.8C181.06 22.48 181.09 22.3 181.09 21.94C181.16 21.4 181.16 20.39 181.05 19.85C180.94 19.38 180.22 18.37 179.65 18.34C179.58 18.34 179.4 18.34 179.29 18.38C178.35 18.52 176.66 23.02 175.51 23.02C175.04 23.02 174.57 22.62 174.65 22.26C174.72 21.83 175.91 19.88 176.77 19.06C177.2 18.05 178.21 16.94 178.86 16.68H178.9C179.22 16.54 179.51 16.46 179.73 16.46C181.35 16.46 182.43 18.04 182.79 18.73C183.01 19.13 183.11 19.7 183.58 19.7C184.01 19.7 185.99 17.22 186.64 16.82C186.78 16.71 186.96 16.71 187.22 16.78C187.8 16.78 188.26 16.89 188.19 17.39C188.15 17.79 187.07 19.12 186.07 19.73C185.64 20.41 185.1 20.99 184.92 21.31C184.45 21.89 183.55 22.28 183.37 23.07C183.26 23.9 183.62 24.73 183.73 25.52C183.73 25.95 184.05 27.68 184.74 27.68C186.07 27.68 187.55 24.98 188.34 24.58C188.77 23.54 190 21.66 190.14 21.59C190.39 21.45 190.61 21.23 190.86 21.01C190.97 20.94 191.18 20.9 191.44 20.94C191.91 20.94 192.02 21.19 192.02 21.59C191.89 22.03 191.46 22.64 191.38 22.79Z" fill="white"/>
</svg>
