<svg width="104" height="42" viewBox="0 0 104 42" fill="none" xmlns="http://www.w3.org/2000/svg">
<path d="M25.3013 7.19393C26.1091 7.19393 26.5959 7.40339 26.7617 7.82232C27.2381 7.98989 27.4763 9.0372 27.4763 10.9642L27.3831 11.5298L27.352 12.0639V12.3781L27.4763 14.2004H27.352L27.4763 14.3261V14.546C27.4763 16.913 27.4349 18.4001 27.352 19.0076V19.7302C27.2277 21.8248 26.7617 22.8931 25.9538 22.935L25.7674 22.9664C24.6488 22.7151 24.0066 22.3904 23.8409 21.9924V21.7725L24.0273 20.3586L24.0584 11.0899L24.1827 8.07367C24.2656 7.78043 24.4106 7.5186 24.6177 7.28819L25.3013 7.19393ZM15.4205 7.50813C17.6162 7.73853 18.7141 8.42976 18.7141 9.5818L18.7762 13.6663L18.7451 14.3575V14.8602L18.7141 15.52L18.683 16.117L18.6519 16.5883C18.6726 17.0701 18.6623 17.4995 18.6208 17.8765L18.5898 18.8819L18.5587 19.1333L18.5276 19.2904L18.5587 19.8559L18.3723 20.2015C18.1651 20.4319 17.9373 20.6309 17.6887 20.7985H16.5701C15.5137 20.4843 14.9751 19.9083 14.9544 19.0704L15.0787 18.2221L14.9544 12.4724L15.203 10.3359L15.0787 10.4301H14.2708L9.05074 11.1842C7.68358 10.6396 7 10.0636 7 9.45612C7 8.7649 8.09787 8.3355 10.2936 8.16793C12.0336 7.72806 13.7426 7.50813 15.4205 7.50813ZM19.1801 22.5265L19.5219 22.4951L19.6151 22.5265H19.8637L19.9569 22.4951L20.0812 22.5265H20.6405L21.5727 22.6522C21.842 22.7151 22.1009 22.7884 22.3495 22.8722C23.7166 23.2701 24.4002 24.0556 24.4002 25.2286C24.6281 26.2759 24.742 27.2813 24.742 28.2449V29.4388C24.742 30.6746 24.5763 31.3554 24.2448 31.481L24.2138 31.6067L24.1827 31.7952L23.872 32.1723C23.7063 32.4236 23.4266 32.6645 23.033 32.8949C22.888 33.0625 22.2977 33.3348 21.2619 33.7118C20.8891 33.9422 19.553 34.1307 17.2537 34.2774L16.3837 34.1517L15.9797 34.0888C14.6333 33.628 13.7322 33.1672 13.2765 32.7064C12.9451 32.0152 12.7483 31.3554 12.6861 30.727L12.4686 28.6847C12.6965 25.0191 13.0694 23.1864 13.5872 23.1864L13.6494 23.1235L13.929 23.2806L14.2708 23.1864L14.4883 23.1549L19.1801 22.5265ZM20.9202 25.3543C20.8994 25.2914 20.5784 25.2914 19.9569 25.3543H19.2423L18.1548 25.4485H17.6887L16.5701 25.48L16.104 25.6685L15.8865 26.7367L15.8555 26.8624L15.8865 26.9567V27.1766L15.8244 27.6793L15.7622 28.5905V29.753C15.7622 31.0516 16.0626 31.701 16.6633 31.701H16.9119C19.3769 31.4706 20.8477 30.7898 21.3241 29.6587L21.4484 28.6847V26.6425C21.4484 25.5533 21.2723 25.1239 20.9202 25.3543Z" fill="white"/>
<path d="M50.6804 6H51.4882C51.8611 6.43987 52.2754 6.77501 52.7311 7.00542C53.3525 8.55544 53.6633 10.1055 53.6633 11.6555L53.8808 13.7606C53.8808 18.0545 53.57 24.1918 52.9486 32.1723L52.7311 32.675L52.8243 33.1463C52.7 33.1463 52.6379 33.2719 52.6379 33.5233L52.4204 34.1203C52.2754 34.1203 52.0061 34.4135 51.6125 35C51.6125 34.7905 51.3329 34.623 50.7736 34.4973C50.7736 34.3507 50.4939 33.9841 49.9346 33.3976L49.7482 31.9209L50.0589 30.9469L49.9346 30.1929C50.1004 27.8678 50.2764 26.3597 50.4629 25.6685L50.3697 25.5428V25.4171L50.5561 23.2178L50.4629 23.0921V22.9664C50.6079 22.5265 50.6804 21.9505 50.6804 21.2384L50.5561 21.1127V20.987L50.6804 20.6414H50.0589L49.6239 20.7671L49.22 20.6414C48.5364 20.7671 48.1946 20.9242 48.1946 21.1127C47.9875 25.6999 47.5111 27.9935 46.7653 27.9935C46.0403 27.9935 45.45 27.5432 44.9942 26.6425L45.0875 26.5168L44.901 25.2914L45.0875 24.5688L44.9942 23.9404L45.2117 22.9664L45.0875 22.4637L45.305 21.4897L45.2117 20.987L45.305 20.6414L45.2117 20.5157V20.39L45.305 19.7616V19.5417H45.2117L45.305 18.662V16.0856L45.2117 15.4572H45.305L45.2117 15.3629V13.5092L45.0875 13.0065L45.2117 12.8808L44.7767 8.70206L45.305 8.23077L45.6157 8.48212L45.8332 8.23077C47.2625 8.90105 47.9771 11.069 47.9771 14.7346C47.9771 16.5359 48.0807 17.4366 48.2878 17.4366C50.0071 17.2062 50.8668 16.9653 50.8668 16.714L50.7736 16.5883L50.8668 15.3629V14.2319L50.9911 11.7811C50.7632 9.35139 50.5561 8.00036 50.3697 7.72806C50.4111 6.57602 50.5147 6 50.6804 6ZM39.2149 10.3044C40.0228 10.7024 40.6131 11.2784 40.986 12.0325V12.2839C40.4888 14.4832 40.002 15.5829 39.5256 15.5829C39.422 16.7349 39.2149 17.3109 38.9042 17.3109L38.5934 18.4106C38.8006 18.4106 39.5567 19.2694 40.8617 20.987C42.3117 22.3066 43.0367 23.5005 43.0367 24.5688L42.4153 25.4171H41.7938C40.7374 24.0347 40.0227 23.2597 39.6499 23.0921C38.3242 21.6259 37.6613 20.809 37.6613 20.6414C37.3299 20.6414 37.1641 20.8404 37.1641 21.2384C36.812 21.5525 36.1595 22.5789 35.2066 24.3174L34.6784 24.6945C34.6784 24.5269 34.4713 24.4431 34.057 24.4431C33.3734 24.0451 33.0316 23.312 33.0316 22.2438L33.1248 22.1181L32.9384 21.8667C34.7613 18.2849 35.7866 16.3998 36.0145 16.2113L35.9213 15.8342C36.6049 15.0383 36.9466 14.3889 36.9466 13.8862L36.8534 13.7606L36.4495 13.8862L34.057 13.7606L33.7463 13.8862V13.7606L33.653 13.8862C32.2652 13.8862 31.3019 13.4359 30.7634 12.5352L30.5769 11.9068L30.6701 11.0585L30.5769 10.9328L30.8566 10.6815H31.0741L31.1673 10.8072C31.478 10.6396 32.0373 10.5558 32.8452 10.5558H34.9891L35.3931 10.6815L35.5173 10.5558H35.6106L35.9213 10.6815L36.4495 10.5558L36.5427 10.6815H36.6359C37.3609 10.4301 38.2206 10.3044 39.2149 10.3044Z" fill="white"/>
<path d="M66.7013 6.06284C67.5299 6.08379 67.9441 6.1571 67.9441 6.28277L68.0684 6.1571H68.1927C68.4206 6.19899 68.7002 6.37703 69.0317 6.69122C69.7567 6.69122 70.461 7.37198 71.1445 8.73348C71.7867 9.59227 72.1078 10.4615 72.1078 11.3413V11.5298C72.1078 12.7866 71.4553 13.8862 70.1502 14.8288C69.0731 15.7923 67.5506 16.2741 65.5827 16.2741C63.6148 15.52 62.6309 14.6927 62.6309 13.792V13.195C62.6309 12.1896 63.3352 10.7024 64.7438 8.73348V8.63922C64.7438 8.51354 64.6195 8.4507 64.3709 8.4507L63.8737 8.32503L63.7495 8.23077V8.13651C63.7495 7.29866 64.7334 6.60744 66.7013 6.06284ZM65.8313 13.2893V13.6035H66.0798C66.9706 13.4359 67.8302 12.8808 68.6588 11.9382L69.0317 11.4355L68.9074 10.9014L69.0317 10.8072V10.7129L68.4413 9.36186L68.5345 9.26761L68.0684 8.95341C67.8613 8.95341 67.5299 9.57133 67.0741 10.8072C66.2456 11.9801 65.8313 12.8075 65.8313 13.2893ZM77.421 19.4789C78.7261 19.6255 79.3786 19.9397 79.3786 20.4215C79.7929 20.4215 80 20.6204 80 21.0184V21.4583C79.5236 22.0657 78.7053 22.3694 77.5453 22.3694L77.421 22.2752L70.896 22.5894V22.6836L71.0203 23.4063L70.896 24.1289L71.1445 25.5742L71.0203 25.6685L71.1445 26.2969L71.0203 27.1138L71.2688 28.3391L71.1445 28.6533L71.5174 30.1929L71.3931 30.3185L71.6417 31.7638L71.5174 32.5807L71.766 32.8007C71.766 33.3453 71.3103 33.827 70.3988 34.2459C69.0109 33.7642 68.317 33.2091 68.317 32.5807C67.8199 29.4807 67.5713 26.7681 67.5713 24.4431V22.6836L66.9499 22.5894L66.3284 22.6836H64.1223L63.6252 22.5894L63.128 22.6836H62.6309L62.1337 22.5894L62.0094 22.6836C60.373 22.6836 58.7365 22.3066 57.1001 21.5525L57.2244 21.0184L56.9758 20.61C57.2451 20.0654 57.7422 19.7931 58.4673 19.7931L60.5491 20.013L61.1705 19.7931L62.1337 20.013H67.6956L68.1927 19.8873L68.317 20.013L69.0317 19.8873L74.3449 19.7931L74.4692 19.6988H74.5935L74.7178 19.7931L77.421 19.4789Z" fill="white"/>
</svg>
